<svg xmlns="http://www.w3.org/2000/svg" xmlns:xlink="http://www.w3.org/1999/xlink" width="200" zoomAndPan="magnify" viewBox="0 0 150 74.999997" height="100" preserveAspectRatio="xMidYMid meet" version="1.0"><defs><g/><clipPath id="e865c64bef"><path d="M 40 30 L 55 30 L 55 49 L 40 49 Z M 40 30 " clip-rule="nonzero"/></clipPath><clipPath id="b75ea7d571"><path d="M 49.058594 50.308594 L 39.105469 32.847656 L 45.839844 29.011719 L 55.789062 46.472656 Z M 49.058594 50.308594 " clip-rule="nonzero"/></clipPath><clipPath id="08e0ac89fc"><path d="M 47.140625 46.941406 L 41.023438 36.210938 C 40.515625 35.320312 40.382812 34.261719 40.65625 33.269531 C 40.925781 32.28125 41.582031 31.4375 42.472656 30.929688 C 43.367188 30.417969 44.425781 30.285156 45.414062 30.558594 C 46.40625 30.828125 47.25 31.484375 47.757812 32.375 L 53.871094 43.109375 C 54.378906 44 54.511719 45.058594 54.242188 46.050781 C 53.96875 47.039062 53.316406 47.882812 52.421875 48.390625 C 51.53125 48.898438 50.472656 49.03125 49.480469 48.761719 C 48.488281 48.488281 47.648438 47.835938 47.140625 46.941406 Z M 47.140625 46.941406 " clip-rule="nonzero"/></clipPath><clipPath id="d189e9efc4"><path d="M 36.527344 40.160156 L 43.785156 40.160156 L 43.785156 47.421875 L 36.527344 47.421875 Z M 36.527344 40.160156 " clip-rule="nonzero"/></clipPath><clipPath id="616803232a"><path d="M 40.15625 40.160156 C 38.152344 40.160156 36.527344 41.785156 36.527344 43.792969 C 36.527344 45.796875 38.152344 47.421875 40.15625 47.421875 C 42.160156 47.421875 43.785156 45.796875 43.785156 43.792969 C 43.785156 41.785156 42.160156 40.160156 40.15625 40.160156 Z M 40.15625 40.160156 " clip-rule="nonzero"/></clipPath></defs><g clip-path="url(#e865c64bef)"><g clip-path="url(#b75ea7d571)"><g clip-path="url(#08e0ac89fc)"><path fill="#004aad" d="M 49.058594 50.308594 L 39.105469 32.847656 L 45.839844 29.011719 L 55.789062 46.472656 Z M 49.058594 50.308594 " fill-opacity="1" fill-rule="nonzero"/></g></g></g><g clip-path="url(#d189e9efc4)"><g clip-path="url(#616803232a)"><path fill="#004aad" d="M 36.527344 40.160156 L 43.785156 40.160156 L 43.785156 47.421875 L 36.527344 47.421875 Z M 36.527344 40.160156 " fill-opacity="1" fill-rule="nonzero"/></g></g><g fill="#000000" fill-opacity="1"><g transform="translate(62.550165, 46.163473)"><g><path d="M 4.25 -4.015625 C 4.507812 -4.671875 4.507812 -4.671875 7.5625 -4.671875 C 10.566406 -4.671875 10.566406 -4.671875 10.847656 -3.945312 L 11.199219 -3.101562 C 11.90625 -1.246094 10.355469 -1.574219 10.355469 -0.65625 C 10.355469 -0.164062 10.730469 0 11.484375 0 L 15.261719 0 C 16.179688 0 16.507812 -0.164062 16.507812 -0.679688 C 16.507812 -1.550781 15.546875 -1.152344 14.769531 -3.101562 L 9.722656 -15.851562 C 9.558594 -16.25 9.277344 -16.4375 8.851562 -16.4375 L 6.199219 -16.4375 C 5.707031 -16.4375 5.449219 -16.226562 5.449219 -15.804688 C 5.449219 -14.910156 6.832031 -15.003906 6.246094 -13.527344 L 2.019531 -3.003906 C 1.316406 -1.246094 0.046875 -1.480469 0.046875 -0.609375 C 0.046875 -0.140625 0.515625 -0.0234375 1.269531 -0.0234375 L 3.359375 -0.0234375 C 3.96875 -0.0234375 4.4375 -0.117188 4.4375 -0.632812 C 4.4375 -1.480469 3.101562 -1.175781 3.828125 -3.003906 Z M 7.585938 -6.152344 C 5.09375 -6.152344 5.09375 -6.152344 5.378906 -6.855469 L 7.5625 -12.398438 L 9.746094 -6.785156 C 9.980469 -6.152344 9.980469 -6.152344 7.585938 -6.152344 Z M 7.585938 -6.152344 "/></g></g></g><g fill="#000000" fill-opacity="1"><g transform="translate(79.356637, 46.163473)"><g><path d="M 2.019531 -3.265625 C 2.019531 -1.082031 0.84375 -1.621094 0.84375 -0.609375 C 0.84375 -0.140625 1.269531 0 1.925781 0 L 5.285156 0 C 5.941406 0 6.316406 -0.117188 6.316406 -0.585938 C 6.316406 -1.621094 5.191406 -1.082031 5.191406 -3.265625 L 5.191406 -12.75 L 5.214844 -15.96875 C 5.214844 -16.460938 5.046875 -16.671875 4.648438 -16.671875 C 4.273438 -16.671875 2.582031 -16.109375 1.621094 -15.640625 C 1.058594 -15.382812 0.867188 -15.214844 0.867188 -14.910156 C 0.867188 -14.207031 1.996094 -14.371094 1.996094 -12.75 Z M 2.019531 -3.265625 "/></g></g></g><g fill="#000000" fill-opacity="1"><g transform="translate(86.492348, 46.163473)"><g><path d="M 8.640625 -11.507812 C 6.691406 -11.507812 5.449219 -10.542969 4.695312 -9.441406 L 4.695312 -10.800781 C 4.695312 -11.296875 4.53125 -11.507812 4.132812 -11.507812 C 3.78125 -11.507812 2.324219 -11.058594 1.433594 -10.660156 C 0.867188 -10.402344 0.679688 -10.238281 0.679688 -9.863281 C 0.679688 -9.535156 0.914062 -9.371094 1.128906 -9.183594 C 1.597656 -8.851562 1.855469 -8.429688 1.855469 -7.773438 L 1.855469 1.433594 C 1.855469 3.617188 0.703125 3.078125 0.703125 4.109375 C 0.703125 4.554688 1.105469 4.695312 1.785156 4.695312 L 5.144531 4.695312 C 5.777344 4.695312 6.175781 4.578125 6.175781 4.109375 C 6.175781 3.078125 5.023438 3.617188 5.023438 1.433594 L 5.023438 -0.726562 C 5.847656 -0.210938 6.972656 0.234375 8.21875 0.234375 C 10.683594 0.234375 13.410156 -1.878906 13.410156 -6.035156 C 13.410156 -9.441406 11.296875 -11.507812 8.640625 -11.507812 Z M 8.007812 -1.222656 C 6.574219 -1.222656 5.070312 -2.558594 5.046875 -4.859375 L 5.023438 -6.386719 L 5.023438 -6.457031 C 5.023438 -8.148438 5.988281 -9.582031 7.46875 -9.582031 C 9.183594 -9.582031 10.332031 -7.515625 10.332031 -4.71875 C 10.332031 -3.027344 9.675781 -1.246094 8.007812 -1.222656 Z M 8.007812 -1.222656 "/></g></g></g><g fill="#000000" fill-opacity="1"><g transform="translate(100.669871, 46.163473)"><g><path d="M 12.984375 -6.667969 C 12.375 -9.769531 11.367188 -11.507812 8.6875 -11.507812 C 7.375 -11.507812 6.082031 -10.941406 5.191406 -9.839844 L 5.191406 -12.75 L 5.214844 -15.96875 C 5.214844 -16.460938 5.046875 -16.671875 4.648438 -16.671875 C 4.273438 -16.671875 2.582031 -16.109375 1.621094 -15.640625 C 1.058594 -15.382812 0.867188 -15.214844 0.867188 -14.910156 C 0.867188 -14.207031 1.996094 -14.371094 1.996094 -12.75 L 2.019531 -3.265625 C 2.019531 -1.082031 0.84375 -1.621094 0.84375 -0.609375 C 0.84375 -0.140625 1.269531 0 1.925781 0 L 5.285156 0 C 5.941406 0 6.316406 -0.117188 6.316406 -0.585938 C 6.316406 -1.621094 5.191406 -1.082031 5.191406 -3.265625 L 5.191406 -6.269531 C 5.191406 -8.335938 6.316406 -9.464844 7.5625 -9.464844 C 9.109375 -9.488281 9.558594 -8.03125 9.839844 -6.550781 L 10.566406 -2.839844 C 10.871094 -1.316406 9.652344 -1.386719 9.652344 -0.609375 C 9.652344 -0.140625 10.050781 0 10.707031 0 L 13.996094 0 C 14.628906 0 15.027344 -0.117188 15.027344 -0.585938 C 15.027344 -1.410156 14.089844 -1.222656 13.785156 -2.652344 Z M 12.984375 -6.667969 "/></g></g></g><g fill="#000000" fill-opacity="1"><g transform="translate(115.786302, 46.163473)"><g><path d="M 12.960938 -1.808594 C 12.445312 -1.785156 12.117188 -2.113281 11.859375 -3.078125 L 10.707031 -7.492188 C 10.191406 -9.441406 9.300781 -11.507812 6.292969 -11.507812 C 4.039062 -11.507812 2.253906 -10.308594 1.667969 -9.324219 C 1.316406 -8.734375 1.808594 -8.382812 2.253906 -8.664062 C 3.101562 -9.132812 4.0625 -9.582031 5.121094 -9.582031 C 6.878906 -9.582031 7.351562 -8.40625 7.773438 -6.925781 C 6.972656 -7.042969 6.503906 -7.113281 5.894531 -7.113281 C 2.558594 -7.113281 0.585938 -5.496094 0.585938 -3.242188 C 0.585938 -1.292969 2.277344 0.210938 4.882812 0.210938 C 6.292969 0.210938 7.890625 -0.328125 8.992188 -1.550781 C 9.347656 -0.375 9.957031 0.1875 10.988281 0.1875 C 12.117188 0.1875 13.410156 -0.609375 13.410156 -1.410156 C 13.410156 -1.691406 13.21875 -1.808594 12.960938 -1.808594 Z M 6.152344 -1.433594 C 4.625 -1.433594 3.640625 -2.417969 3.617188 -3.757812 C 3.617188 -5.046875 4.601562 -5.894531 6.269531 -5.894531 C 7.019531 -5.894531 7.9375 -5.660156 8.101562 -5.121094 C 8.3125 -4.296875 8.523438 -3.710938 8.59375 -3.3125 C 8.78125 -2.347656 7.46875 -1.433594 6.152344 -1.433594 Z M 6.152344 -1.433594 "/></g></g></g><g fill="#000000" fill-opacity="1"><g transform="translate(129.288441, 46.163473)"><g/></g></g></svg>